<?xml version="1.0" encoding="utf-8"?>
<!-- Generator: Adobe Illustrator 25.4.1, SVG Export Plug-In . SVG Version: 6.00 Build 0)  -->
<svg version="1.1" id="Camada_1" xmlns="http://www.w3.org/2000/svg" xmlns:xlink="http://www.w3.org/1999/xlink" x="0px" y="0px"
	 viewBox="0 0 1080 1080" style="enable-background:new 0 0 1080 1080;" xml:space="preserve">
<style type="text/css">
	.st0{fill:#FFFFFF;}
</style>
<path class="st0" d="M1026.16,471.66c0.08,12.14-4.21,21.08-13.08,28.94c-35.73,31.63-71.33,63.43-106.63,95.51
	c-3.55,3.22-6.49,8.79-6.87,13.48c-3.78,46.6-6.92,93.23-10.29,139.86c-0.56,7.55-1.01,15.13-1.98,22.65
	c-1.8,14.01-13.48,24.1-28.28,24.18c-30.33,0.15-60.69,0.05-91.02,0.05h-11.38c0,16.07-0.28,31.45,0.13,46.83
	c0.25,9.38-2.46,17.26-8.62,24.25c-43.48,49.31-86.82,98.73-130.35,147.97c-9.71,11-21.44,13.51-35.2,7.73
	c-55.77-23.49-111.5-47.06-167.2-70.75c-18.95-8.08-24.66-25.62-14.17-43.54c20.4-34.87,40.95-69.64,61.7-104.28
	c3.37-5.63,3.98-10.44,1.98-16.83c-15.58-49.57-30.66-99.29-46.22-148.85c-1.32-4.21-4.28-8.41-7.63-11.38
	c-46.45-41.43-93.03-82.74-139.86-123.76c-3.37-2.96-8.82-4.97-13.3-4.99c-55.65-0.33-111.27-0.66-166.89,0.05
	c-17.23,0.23-29.24-5.3-36.19-21.11V318.33c5.5-6.74,10.36-14.19,16.65-20.12c18.85-17.74,38.42-34.69,57.25-52.46
	c3.14-2.96,5.45-8.39,5.52-12.75c0.53-24.91,1.24-49.92-0.03-74.78c-1.17-22.25,12.47-36.59,35.73-35.58
	c29.57,1.29,59.22,0.33,89.33,0.33c1.55-11.25,3.37-21.74,4.31-32.33c1.42-16.02,6.28-29.52,22.65-35.98H430.4
	c20.45,13.66,40.75,27.49,61.43,40.77c4.18,2.71,9.76,4.54,14.7,4.56c53.09,0.33,106.2,0.2,159.29,0.23
	c21.06,0,32.01,10.97,32.03,32.06c0.03,25.26,0,50.5,0,76.55c17.18,3.07,33.86,6.08,50.53,9.07c72.27,13,144.52,25.97,216.79,38.97
	c11.78,2.13,23.57,4.23,35.35,6.44c17.05,3.24,25.47,13.46,25.47,31.04C1026.01,353.45,1025.81,412.57,1026.16,471.66z"/>
</svg>
